<svg width="1572" height="184" viewBox="0 0 1572 184" fill="none" xmlns="http://www.w3.org/2000/svg">
<path d="M1571.02 0V34.6003L1490.77 34.6003V182.572H1456.17V0L1571.02 0Z" fill="#ffffff"/>
<path d="M1367.82 66.2558V34.9683L1268.44 34.9683V0L1402.42 0V147.971H1427.09V182.572H1372.61L1368.93 163.063H1367.82C1364.88 168.462 1358.99 173.124 1350.16 177.05C1341.32 180.977 1330.28 182.94 1317.03 182.94C1295.43 182.94 1278.87 177.296 1267.34 166.008C1255.8 154.474 1250.04 139.873 1250.04 122.205C1250.04 103.801 1256.91 89.9361 1270.65 80.6113C1284.39 71.041 1302.79 66.2558 1325.86 66.2558L1367.82 66.2558ZM1367.82 97.5433L1331.01 97.5433C1323.16 97.5433 1316.41 98.4022 1310.77 100.12C1305.13 101.838 1300.46 104.046 1296.78 106.745C1293.35 109.199 1290.77 112.144 1289.05 115.58C1287.58 118.77 1286.84 121.96 1286.84 125.15C1286.84 131.53 1288.81 136.806 1292.73 140.978C1296.91 145.149 1301.57 147.971 1306.72 149.444C1311.87 150.916 1316.9 151.652 1321.81 151.652C1323.53 151.652 1326.6 151.53 1331.01 151.284C1335.68 150.793 1340.95 149.198 1346.84 146.499C1352.73 143.554 1357.64 139.505 1361.57 134.352C1365.74 129.199 1367.82 123.064 1367.82 115.948V97.5433Z" fill="#ffffff"/>
<path d="M1158.75 147.603L1237.52 147.603V182.572L1104.64 182.572V164.167L1183.41 36.0726V34.6003L1104.64 34.6003V0L1237.52 0V16.564L1158.75 146.499V147.603Z" fill="#ffffff"/>
<path d="M977.464 0V17.911C977.464 29.9747 978.194 37.1761 979.654 45.0544C981.114 52.6866 983.305 58.7185 986.226 63.1501C989.329 67.5816 993.162 70.6591 997.726 72.3825C1002.47 74.1059 1007.95 74.9676 1014.16 74.9676C1020.54 74.9676 1026.2 74.1059 1031.13 72.3825C1036.06 70.6591 1040.17 67.5816 1043.45 63.1501C1046.74 58.7185 1049.2 52.9328 1050.85 45.793C1052.67 38.407 1053.58 31.9443 1053.58 20.8654V0L1079.6 0L1079.6 183.172L963.499 183.172V149.935L1052.76 149.935V88.6316H1052.22C1049.48 94.2942 1044.55 99.2182 1037.43 103.404C1030.49 107.589 1022.64 109.682 1013.88 109.682C1006.58 109.682 999.095 108.697 991.428 106.727C983.944 104.758 977.099 100.572 970.892 94.1711C964.685 87.7699 959.665 78.5375 955.832 66.4737C951.999 54.1638 950.082 40.6844 950.082 20.4961V0L977.464 0Z" fill="#ffffff"/>
<path fill-rule="evenodd" clip-rule="evenodd" d="M853.828 2.11659C854.083 2.11548 854.339 2.11539 854.599 2.1166C883.908 2.24585 905.375 9.97518 919.001 25.3045C929.783 37.6553 936.517 54.4699 938.685 76.0613L938.709 76.218C939.432 82.2324 939.793 88.0461 939.793 93.6592C939.793 98.567 939.547 103.475 939.057 108.383L803.968 108.383C803.968 116.971 805.318 123.965 808.017 129.364C810.717 134.762 815.071 138.441 819.734 141.385C824.088 144.136 828.903 145.227 833.88 146.264C867.485 151.864 903.317 148.636 937.296 149.421V182.737H854.396C824.704 182.737 802.987 175.007 789.245 159.547C775.748 144.087 769 121.388 769 91.4507C769 86.1998 769.436 81.1222 769.975 76.218C772.119 54.5826 778.603 37.5864 789.425 25.2299C803.052 9.9499 824.519 2.24542 853.828 2.11659ZM853.859 36.5257C854.237 36.521 854.555 36.5326 854.857 36.5257C861.482 36.5257 868.476 37.6064 874.365 38.588L874.729 38.6637C880.405 39.8452 883.947 40.5826 888.512 43.4662C893.175 46.4109 897.529 50.0891 900.229 55.4877C902.902 60.8337 904.251 67.7439 904.277 76.218L804.149 76.218C804.15 67.6623 805.5 60.6949 808.198 55.3161C810.897 49.9348 815.252 46.2685 819.914 43.3332C824.48 40.4589 828.022 39.7239 833.698 38.5462L834.062 38.4707C839.951 37.4923 846.949 36.5257 853.575 36.5257C853.735 36.5294 853.737 36.5257 853.859 36.5257Z" fill="#ffffff"/>
<path d="M364.668 1V18.8222C364.668 30.8261 365.394 37.9917 366.847 45.831C368.3 53.4253 370.48 59.4273 373.386 63.8369C376.474 68.2465 380.289 71.3087 384.83 73.0235C389.552 74.7384 395.001 75.5958 401.177 75.5958C407.535 75.5958 413.165 74.7384 418.07 73.0235C422.974 71.3087 427.061 68.2465 430.33 63.8369C433.6 59.4273 436.052 53.6703 437.687 46.5659C439.503 39.2166 440.411 32.7859 440.411 21.7619V1L466.295 1L466.295 183.264L350.772 183.264V150.192L439.594 150.192V89.1921H439.049C436.324 94.8265 431.42 99.7261 424.336 103.891C417.434 108.055 409.623 110.138 400.905 110.138C393.639 110.138 386.192 109.158 378.563 107.198C371.116 105.238 364.304 101.073 358.129 94.7041C351.953 88.3346 346.958 79.148 343.143 67.144C339.329 54.8951 337.422 41.4826 337.422 21.3944V1L364.668 1Z" fill="#ffffff"/>
<path d="M208.527 1L325.25 1V35.6117L243.139 35.6117V66.9095L304.63 66.9095V101.521L243.139 101.521L243.139 183.264H208.527V101.521H177.598L177.598 66.9095H208.527V1Z" fill="#ffffff"/>
<path d="M118.335 67.2777L118.335 35.9799L18.9183 35.9799L18.9183 1L152.946 1L152.946 149.02H177.616V183.632H123.121L119.439 164.117H118.335C115.389 169.517 109.498 174.181 100.661 178.109C91.8237 182.036 80.7774 184 67.5219 184C45.9203 184 29.3509 178.354 17.8136 167.062C6.27642 155.525 0.507813 140.92 0.507813 123.245C0.507813 104.835 7.38105 90.9658 21.1275 81.6378C34.874 72.0644 53.2844 67.2777 76.3589 67.2777L118.335 67.2777ZM118.335 98.5754L81.5138 98.5754C73.6587 98.5754 66.9082 99.4346 61.2623 101.153C55.6164 102.871 50.9525 105.08 47.2704 107.781C43.8337 110.235 41.2563 113.181 39.538 116.618C38.0651 119.809 37.3287 123 37.3287 126.191C37.3287 132.573 39.2925 137.851 43.2201 142.024C47.3931 146.197 52.0571 149.02 57.212 150.493C62.3669 151.966 67.3991 152.702 72.3086 152.702C74.0269 152.702 77.0953 152.579 81.5138 152.334C86.1778 151.843 91.4555 150.247 97.3468 147.547C103.238 144.602 108.148 140.551 112.075 135.396C116.248 130.241 118.335 124.105 118.335 116.986L118.335 98.5754Z" fill="#ffffff"/>
<path d="M657.393 182.897H598.848V1L633.46 1V147.917H657.393V182.897Z" fill="#ffffff"/>
<path fill-rule="evenodd" clip-rule="evenodd" d="M555.008 1.00011L598.848 1L598.847 101.741L598.111 97.8391H597.007C594.061 103.24 588.17 107.904 579.333 111.831C570.496 115.759 559.449 117.722 546.194 117.722C524.592 117.722 508.023 112.077 496.486 100.785C484.948 89.2476 479.18 74.642 479.18 56.9679C479.18 38.5575 486.053 24.6882 499.799 15.3603C513.541 5.79005 531.944 1.00332 555.008 1.00011ZM539.934 34.8754C545.58 33.1571 552.331 32.2979 560.186 32.2979L597.007 32.2979V50.7084C597.007 57.8271 594.92 63.9639 590.747 69.1188C586.819 74.2738 581.91 78.3241 576.019 81.2697C570.127 83.9699 564.85 85.5655 560.186 86.0565C555.767 86.3019 552.699 86.4247 550.98 86.4247C546.071 86.4247 541.039 85.6882 535.884 84.2154C530.729 82.7426 526.065 79.9196 521.892 75.7466C517.964 71.5735 516.001 66.2959 516.001 59.9136C516.001 56.7225 516.737 53.5313 518.21 50.3402C519.928 46.9035 522.506 43.9579 525.942 41.5031C529.624 38.8029 534.288 36.5937 539.934 34.8754Z" fill="#ffffff"/>
</svg>
