<?xml version="1.0" encoding="UTF-8" standalone="no"?>
<!-- Created with Inkscape (http://www.inkscape.org/) -->

<svg
   width="5.2794347mm"
   height="9.4131479mm"
   viewBox="0 0 5.2794347 9.4131479"
   version="1.1"
   id="svg5"
   xml:space="preserve"
   xmlns="http://www.w3.org/2000/svg"
   xmlns:svg="http://www.w3.org/2000/svg"><defs
     id="defs2" /><g
     id="layer2"
     transform="translate(-167.41387,-324.26177)"><path
       id="path3203-8-2"
       style="fill:#ffffff;fill-opacity:1;stroke:none;stroke-width:0.1;stroke-linejoin:bevel;stroke-dasharray:none;stroke-opacity:1"
       d="m 169.57311,324.26341 c -0.22459,-0.0224 -0.48034,0.17681 -0.42261,0.41795 0.0843,1.92016 0.15148,3.84102 0.22435,5.76164 -0.17404,-0.21227 -0.20611,-0.49606 -0.32238,-0.73787 -0.28582,-0.82978 -0.45096,-1.71113 -0.88842,-2.48116 -0.10936,-0.16287 -0.2913,-0.31487 -0.50024,-0.28228 -0.21218,0.1038 -0.22979,0.36798 -0.23918,0.57524 -0.0583,0.63863 0.10969,1.26992 0.32276,1.86598 0.16968,0.55539 0.26438,1.13178 0.44851,1.68261 0.24277,0.63089 0.58919,1.21429 0.89407,1.81549 0.20389,0.31714 0.46715,0.60548 0.7993,0.79039 0.19139,0.0343 0.30564,-0.16232 0.34577,-0.32021 0.20597,-0.8027 0.64042,-1.52055 1.06899,-2.2213 0.43482,-0.71537 0.8994,-1.41231 1.32535,-2.13312 0.0371,-0.1956 0.12994,-0.42948 -0.0139,-0.60462 -0.25284,-0.21627 -0.65014,-0.07 -0.81381,0.18776 -0.18404,0.24503 -0.32873,0.5212 -0.55113,0.73575 -0.26507,0.32293 -0.53057,0.64551 -0.79824,0.96629 -0.14788,-1.30272 -0.3092,-2.60409 -0.44335,-3.90826 -0.051,-0.64976 -0.0751,-1.30125 -0.12143,-1.95133 -0.0662,-0.10486 -0.19311,-0.15966 -0.31441,-0.15895 z m 0.10852,6.79804 c 0.058,-0.0114 0.005,0.039 0,0 z" /></g></svg>
