<?xml version="1.0" encoding="UTF-8" standalone="no"?>

<svg
   width="49.444954mm"
   height="9.3335915mm"
   viewBox="0 0 49.444954 9.3335915"
   version="1.1"
   id="svg5"
   xml:space="preserve"
   xmlns="http://www.w3.org/2000/svg"
   xmlns:svg="http://www.w3.org/2000/svg"><defs
     id="defs2" /><g
     id="layer2"
     transform="translate(-11.553641,-35.5098)"><path
       id="path3002"
       style="opacity:1;fill:#000000;fill-opacity:1;stroke:#000000;stroke-width:0.0991258;stroke-linejoin:bevel;stroke-dasharray:none;stroke-opacity:1"
       d="m 13.692591,36.414101 c -0.747555,0.0212 -1.474691,0.29125 -2.090478,0.70844 0.06848,0.32098 0.447938,0.26631 0.75296,0.26695 0.555118,10e-4 0.884527,-0.10346 1.461079,-0.11986 0.301382,-0.009 0.759714,0.54935 0.468035,0.60115 -0.216936,0.0385 -0.08059,-0.0599 -0.666499,-0.0374 -0.853228,0.0328 -1.55156,0.77918 -1.782803,1.57914 -0.150321,0.54085 -0.108245,1.1202 0.01294,1.66262 0.14263,0.56545 0.424359,1.12825 0.899941,1.48332 0.503078,0.32844 1.220641,0.30618 1.678928,-0.0527 0.2467,-0.19319 0.663819,-0.22806 0.751181,0.11227 0.05277,0.26973 -0.07318,0.55518 0.04071,0.81817 0.105002,0.27803 0.52004,0.40713 0.72217,0.15801 0.198168,-0.24584 0.193119,-0.58031 0.254973,-0.87555 0.181557,-1.54763 0.113494,-3.13599 -0.295487,-4.64355 -0.252139,-0.74147 -0.827551,-1.43741 -1.623313,-1.60312 -0.19111,-0.0448 -0.388145,-0.0643 -0.584335,-0.0579 z m 0.172627,2.53613 c 0.649432,-0.003 1.215903,0.4724 1.247648,1.12148 0.04957,1.01356 -0.90274,2.0128 -1.890484,1.77068 -0.607618,-0.14894 -0.858288,-0.86646 -0.822425,-1.47842 0.04518,-0.77095 0.670105,-1.40983 1.465261,-1.41374 z" /><path
       style="opacity:1;fill:#0a0b00;fill-opacity:1;stroke:#000000;stroke-width:0.1;stroke-linejoin:bevel;stroke-dasharray:none;stroke-opacity:1"
       d="m 18.476887,39.696991 c 0.403256,-0.0381 0.806512,-0.0763 1.209768,-0.11443 0.36352,0.0682 0.22487,0.52255 0.005,0.6922 -0.315456,0.24341 -0.70833,0.0796 -1.057467,0.0747 -0.05956,0.16991 0.06758,0.47006 0.08283,0.69 0.105018,0.58171 0.301197,1.15741 0.295191,1.74865 -0.0035,0.34078 -0.452204,0.86854 -0.831032,0.65938 -0.206782,-0.25299 -0.110134,-0.61442 -0.192869,-0.91458 -0.103752,-0.76012 -0.206397,-1.52039 -0.312819,-2.28014 -0.305621,-0.0706 -0.838538,0.15937 -0.956918,-0.12985 -0.167483,-0.40919 0.598554,-0.13933 0.814479,-0.34074 0.232753,-0.21711 0.05637,-0.6199 0.0543,-0.93064 -0.003,-0.45503 -0.137337,-0.93027 -0.09772,-1.36161 0.09079,-0.53477 0.22257,-1.17343 0.757414,-1.43812 0.466033,-0.21897 1.067077,-0.10408 1.429051,0.26752 0.21468,0.2204 0.46767,0.38332 0.68369,0.62044 0.28139,0.30888 0.1302,0.78774 -0.17043,0.45951 -0.37468,-0.3004 -0.730213,-0.66107 -1.190002,-0.82472 -0.42684,-0.0593 -0.796852,0.39175 -0.739917,0.79994 0.03676,0.50185 0.108623,1.00059 0.143084,1.50297 0.025,0.27313 0.04954,0.54631 0.07398,0.81949 z"
       id="path3149" /><path
       style="opacity:1;fill:#0a0b00;fill-opacity:1;stroke:#000000;stroke-width:0.1;stroke-linejoin:bevel;stroke-dasharray:none;stroke-opacity:1"
       d="m 21.550355,36.607181 c 0.5181,0.13268 0.30719,0.76366 0.27789,1.14226 -0.0265,0.64102 0.23925,1.28658 0.70432,1.7276 0.47915,0.20605 1.21136,-0.11035 1.34031,-0.57261 0.13795,-0.49452 0.0877,-1.12763 -0.0106,-1.64426 0.043,-0.54478 0.94976,-0.62159 1.03144,-0.0552 0.24521,0.71975 0.0984,1.49023 0.1533,2.23319 -0.009,1.17668 -0.0287,2.40316 -0.52737,3.49241 -0.3565,0.65665 -1.15047,1.08768 -1.91061,0.86855 -0.70917,-0.20444 -1.54026,-0.65769 -1.65559,-1.44544 -0.0758,-0.51756 -0.17635,-1.0123 -0.23296,-1.5377 -0.0597,-0.55409 0.96158,-0.54136 0.80523,0.0175 -0.015,0.52723 -0.006,1.11198 0.38678,1.53067 0.43422,0.46284 1.2587,0.692 1.72531,0.17807 0.39306,-0.40677 0.83755,-1.25239 0.5105,-1.77338 -0.10395,-0.1656 -0.36719,-0.0457 -0.57818,-0.0989 -0.38496,-0.0971 -0.81181,-0.0926 -1.116,-0.33397 -0.56238,-0.44617 -0.94771,-1.10339 -1.07048,-1.8687 -0.10233,-0.50942 -0.19276,-1.05224 0.0261,-1.54689 0.033,-0.1098 0.10781,-0.20592 0.14067,-0.31325 z"
       id="path3151" /><path
       id="path3153"
       style="opacity:1;fill:#0a0b00;fill-opacity:1;stroke:#000000;stroke-width:0.1;stroke-linejoin:bevel;stroke-dasharray:none;stroke-opacity:1"
       d="m 29.418505,35.559931 c -0.24044,0.0243 -0.2639,0.33637 -0.18711,0.51227 -0.0221,0.30487 -0.38299,0.19428 -0.53389,0.0547 -0.41247,-0.26939 -0.97567,-0.33017 -1.40864,-0.072 -0.88131,0.45761 -1.37938,1.58212 -1.05137,2.53285 0.14935,0.4671 0.35536,0.92632 0.66821,1.30743 0.31464,0.34557 0.81352,0.51884 1.27233,0.40974 0.31873,-0.0606 0.6176,-0.2188 0.84902,-0.44591 0.26526,0.058 0.21541,0.41347 0.25855,0.59816 0.11367,1.28346 0.0561,2.54101 0.20676,3.82123 0.0787,0.32225 0.41944,0.52566 0.73931,0.51455 0.2406,-0.14568 0.22042,-0.46042 0.32741,-0.68925 0.39325,-1.14501 0.79037,-2.28917 1.13907,-3.44876 0.0259,-0.1968 0.14722,-0.43434 -0.0138,-0.60439 -0.18581,-0.15274 -0.43093,-0.0213 -0.63309,0.0215 -0.27249,0.0457 -0.28596,0.42136 -0.29639,0.67097 -0.014,0.33569 -0.10892,0.68634 -0.36596,0.93915 -0.15296,0.15042 -0.1747,-0.32825 -0.1984,-0.50139 -0.24504,-1.78974 -0.2979,-3.59394 -0.48259,-5.39091 -0.0434,-0.12074 -0.15287,-0.23404 -0.28939,-0.22996 z m -1.79886,1.29036 c 0.25739,0.009 0.55542,-0.0358 0.76373,0.15171 0.22303,0.12387 0.50509,0.26389 0.54095,0.54706 0.0819,0.44352 0.10556,0.94923 -0.17208,1.33293 -0.18793,0.29577 -0.51686,0.57565 -0.89112,0.50435 -0.47539,-0.0546 -0.96277,-0.36456 -1.07816,-0.85204 -0.13367,-0.53987 -4.6e-4,-1.17334 0.43075,-1.54629 0.11603,-0.0868 0.2592,-0.1448 0.40593,-0.13772 z" /><path
       id="path3191"
       style="opacity:1;fill:#0a0b00;fill-opacity:1;stroke:#000000;stroke-width:0.1;stroke-linejoin:bevel;stroke-dasharray:none;stroke-opacity:1"
       d="m 38.4364,36.689298 c -0.51363,0.07176 -0.736141,0.172132 -1.100032,0.573215 -0.613257,0.794126 -0.795525,1.846531 -0.674837,2.825889 0.07732,0.85053 0.33071,1.721306 0.899661,2.376489 0.516576,0.498662 1.294264,0.742048 1.996252,0.560417 0.490668,-0.194537 0.760809,-0.7084 0.860122,-1.201336 0.119369,-0.263594 -0.07009,-0.629954 -0.376634,-0.615815 -0.265893,-0.0014 -0.477404,0.217751 -0.548998,0.460267 -0.09962,0.232444 -0.328551,0.444483 -0.598883,0.397475 -0.351479,-0.04463 -0.677806,-0.355026 -0.826731,-0.642554 -0.174441,-0.313876 -0.519059,-0.690557 -0.339918,-0.98995 0.126635,-0.211641 0.490227,-0.141321 0.730259,-0.119074 0.439219,0.0473 0.881759,0.05066 1.321212,0.09516 0.456217,-0.211033 0.632554,-0.735459 0.71125,-1.195907 0.06063,-0.65439 -0.233841,-1.266644 -0.484036,-1.851995 -0.203523,-0.386775 -0.642076,-0.614186 -1.067305,-0.656747 z m 0.619045,0.967348 c 0.349635,0.277459 0.72193,0.714255 0.672599,1.157871 -0.02501,0.22489 -0.183687,0.613078 -0.461594,0.497733 -0.467679,-0.08298 -0.962081,-0.16053 -1.424477,-0.0084 -0.278293,-0.02097 -0.39485,-0.37909 -0.278636,-0.603925 0.09769,-0.381231 0.371274,-0.714543 0.675291,-0.96141 0.09428,-0.07655 0.217579,-0.111913 0.334776,-0.143752 0.06434,-0.01748 0.132036,-0.03066 0.198463,-0.02493 0.09849,0.0085 0.206142,0.02536 0.283578,0.08681 z" /><path
       style="opacity:1;fill:#0a0b00;fill-opacity:1;stroke:#000000;stroke-width:0.1;stroke-linejoin:bevel;stroke-dasharray:none;stroke-opacity:1"
       d="m 41.119205,36.737961 c 0.130808,-0.306398 0.582752,-0.148388 0.632982,0.179498 0.114151,0.745145 0.325177,1.495017 0.735803,2.142447 0.283752,0.216171 0.84792,-0.01291 0.965456,-0.328239 0.239615,-0.642839 0.07664,-1.333247 0.185269,-1.996585 0.213773,-0.424265 0.87179,-0.37857 1.129616,-0.02241 0.295264,0.39321 0.214941,0.912711 0.232491,1.373046 -0.01095,0.632223 -0.02566,1.271502 -0.158739,1.891541 -0.227392,0.874632 -0.572383,1.711764 -0.897939,2.552475 -0.169948,0.438871 -0.543671,0.894533 -1.048145,0.907987 -0.617662,0.01647 -1.114259,-0.485444 -1.417948,-0.984378 -0.233714,-0.438097 -0.348187,-0.94975 -0.298654,-1.444163 0.0914,-0.320458 0.58781,-0.337589 0.682967,-0.0113 0.139921,0.29992 0.04819,0.654223 0.205267,0.950565 0.09284,0.237158 0.316216,0.557219 0.610001,0.453807 0.309722,-0.124475 0.430527,-0.467353 0.616111,-0.718286 0.226814,-0.363001 0.442189,-0.762868 0.444449,-1.202089 -0.103132,-0.328367 -0.506489,-0.17699 -0.756958,-0.170521 -0.327785,0.0085 -0.648556,-0.177775 -0.893595,-0.391591 -0.255089,-0.222585 -0.403937,-0.552207 -0.529906,-0.866446 -0.264815,-0.660597 -0.371178,-1.379544 -0.452638,-2.086566 -0.0074,-0.06399 -0.0201,-0.131094 -0.0031,-0.19321 0.01152,-0.04199 0.06844,-0.111272 0.06844,-0.111272 z"
       id="path3195" /><path
       style="opacity:1;fill:#0a0b00;fill-opacity:1;stroke:#000000;stroke-width:0.1;stroke-linejoin:bevel;stroke-dasharray:none;stroke-opacity:1"
       d="m 46.432385,36.737961 c 0.975309,0.01785 1.958601,0.123707 2.92634,0 0.209984,-0.02684 0.502525,-0.04948 0.683167,0.03058 0.219672,0.09735 0.02565,0.327019 -0.0194,0.527087 -0.15342,0.681295 -0.568288,1.254435 -0.966145,1.808947 -0.104003,0.144954 -0.243794,0.398765 0.02928,0.350256 0.262472,-0.04663 0.532424,-0.02803 0.798672,-0.04136 0.250362,0.137401 0.31385,0.484552 0.194748,0.72965 -0.05078,0.246735 -0.288208,0.469493 -0.550586,0.433557 -0.396098,0.01149 -0.788688,0.0696 -1.183279,0.101305 l -0.9809,2.09257 c 0.90969,-0.01663 1.826363,-0.185537 2.731781,-0.02195 0.202612,0.09001 0.175759,0.338559 0.124943,0.565035 -0.05637,0.251242 -0.107665,0.510764 -0.315727,0.690989 -0.273126,0.138481 -0.565157,-0.02992 -0.846251,-0.03808 -0.696461,-0.08957 -1.404152,-0.114886 -2.102662,-0.03277 -0.533431,-0.08713 -0.864842,-0.701788 -0.723118,-1.206788 0.107536,-0.444098 0.390432,-0.821581 0.499477,-1.26546 0.06799,-0.198569 0.133871,-0.397947 0.208998,-0.593978 -0.02931,-0.214352 -0.326897,-0.257524 -0.468536,-0.363336 -0.181163,-0.135339 -0.24321,-0.301491 -0.378068,-0.477096 -0.06572,-0.213305 0.172479,-0.407659 0.374142,-0.372608 0.243007,-0.0038 0.912857,-0.05609 1.155278,-0.03437 0.218087,0.01954 0.244707,-0.444694 0.352041,-0.674465 0.202645,-0.433804 0.274063,-0.720762 0.550042,-1.326917 0.106012,-0.232842 -0.439402,-0.192047 -0.671361,-0.205182 -0.519554,-0.02942 -1.021283,-0.05543 -1.498159,-0.247131 -0.189125,-0.07603 -0.134806,-0.421629 0.07528,-0.428474 z"
       id="path3197" /><path
       id="path3199"
       style="opacity:1;fill:#0a0b00;fill-opacity:1;stroke:#000000;stroke-width:0.1;stroke-linejoin:bevel;stroke-dasharray:none;stroke-opacity:1"
       d="m 53.372595,36.293221 c -0.397124,0.08332 -0.784532,0.231072 -1.103389,0.472826 -0.302048,0.229009 -0.508056,0.566741 -0.713441,0.885498 0.07401,0.277563 0.441634,0.289277 0.638623,0.13936 0.182266,-0.16972 0.331045,-0.385641 0.584088,-0.466959 0.696389,-0.268773 1.541358,-0.274546 2.18163,0.144803 0.143908,0.332475 -0.343846,0.217097 -0.53866,0.230067 0,0 -0.739001,-0.08457 -1.055953,0.0703 -0.67047,0.327597 -1.251769,0.88347 -1.490043,1.670755 -0.246584,0.701524 -0.30358,1.52339 0.0609,2.194954 0.262328,0.409234 0.61539,0.771012 1.034978,1.016362 0.636929,0.19263 1.293282,-0.10356 1.827673,-0.434836 0.125589,-0.147053 0.482564,-0.586888 0.550691,-0.1745 0.01106,0.302197 -0.119978,0.629931 0.06983,0.904036 0.121986,0.216705 0.448324,0.405778 0.661321,0.198985 0.255803,-0.299738 0.108854,-0.713457 0.122285,-1.066807 -0.01393,-1.302862 0.199048,-2.638784 -0.182221,-3.910754 -0.127255,-0.502871 -0.281172,-1.050573 -0.722968,-1.371275 -0.269762,-0.248147 -0.632329,-0.367854 -0.982681,-0.454415 -0.305449,-0.07547 -0.628128,-0.04033 -0.942658,-0.0484 z m 0.52245,2.32234 c 0.453843,-0.08428 1.024066,0.17968 1.074052,0.680571 0.126634,0.701449 -0.213142,1.392016 -0.638044,1.928587 -0.297007,0.344534 -0.80696,0.614763 -1.254858,0.40268 -0.740606,-0.38094 -0.945912,-1.452803 -0.459116,-2.111661 0.275299,-0.459692 0.745358,-0.809995 1.277966,-0.900177 z" /><path
       style="opacity:1;fill:#0a0b00;fill-opacity:1;stroke:#000000;stroke-width:0.1;stroke-linejoin:bevel;stroke-dasharray:none;stroke-opacity:1"
       d="m 56.960655,36.492741 c 0.07578,1.988113 0.154304,3.976121 0.228371,5.964299 -0.03393,0.277638 0.135734,0.558003 0.359883,0.686509 0.16541,0.09483 0.518732,0.237415 0.571368,-0.02678 0.267352,-0.431382 0.11568,-0.951906 0.06898,-1.420143 -0.05945,-0.557698 -0.249627,-1.115852 -0.182355,-1.67266 0.06362,-0.526568 0.317333,-1.014476 0.544211,-1.495234 0.218718,-0.300868 0.428087,-0.668121 0.811787,-0.774021 0.204011,-0.143929 0.571196,-0.122721 0.662102,0.143778 0.08832,0.254524 0.121876,0.565639 0.363936,0.728774 0.273806,0.08743 0.544146,-0.18588 0.541685,-0.452751 0.06908,-0.4356 -0.06536,-0.928569 -0.362524,-1.240434 -0.205015,-0.215157 -0.546295,-0.312492 -0.842718,-0.291104 -0.556548,0.04016 -1.151425,0.286208 -1.487389,0.768046 -0.175774,0.159649 -0.147683,0.409972 -0.240239,0.596383 -0.08666,0.174532 -0.09944,0.04381 -0.214737,-0.202647 -0.115297,-0.246458 -0.05368,-0.889925 -0.08124,-1.334836 -0.154478,-0.233961 -0.520371,-0.189235 -0.689009,0.0047 l -0.02538,0.0109 -0.02673,0.0073 z"
       id="path3203" /></g></svg>
